<?xml version="1.0" standalone="no"?>
<!DOCTYPE svg PUBLIC "-//W3C//DTD SVG 20010904//EN"
 "http://www.w3.org/TR/2001/REC-SVG-20010904/DTD/svg10.dtd">
<svg version="1.0" xmlns="http://www.w3.org/2000/svg"
 width="1920.000000pt" height="1080.000000pt" viewBox="0 0 1920.000000 1080.000000"
 preserveAspectRatio="xMidYMid meet">

<g transform="translate(0.000000,1080.000000) scale(0.100000,-0.100000)"
fill="#000000" stroke="none">
<path d="M7925 6880 c-22 -5 -83 -24 -136 -43 -116 -42 -223 -57 -419 -57
-229 0 -326 -36 -449 -165 -78 -82 -121 -154 -186 -311 -26 -60 -57 -128 -70
-151 -36 -61 -120 -130 -240 -198 -321 -181 -400 -396 -285 -780 72 -242 65
-324 -39 -484 -66 -101 -81 -145 -81 -248 0 -106 38 -233 79 -262 63 -45 478
-241 509 -241 5 0 1 35 -8 78 -10 42 -21 106 -25 142 l-6 65 63 -117 c73 -137
117 -200 152 -223 29 -19 160 -41 307 -51 54 -4 99 -10 99 -13 0 -12 -229
-132 -400 -211 -315 -144 -386 -187 -479 -285 -59 -64 -108 -150 -137 -242
-35 -115 -164 -768 -153 -777 2 -2 87 -19 189 -39 1025 -198 2084 -206 2935
-21 88 19 182 40 210 47 l50 13 -3 40 c-11 144 -60 458 -93 594 -58 239 -169
357 -584 619 -99 63 -232 149 -296 192 l-116 77 -18 -36 c-30 -65 -120 -195
-166 -242 -127 -131 -267 -176 -419 -135 -201 53 -368 212 -424 403 l-15 52
67 53 c76 61 134 122 156 166 9 16 21 63 27 104 9 60 8 89 -5 159 -26 138 -31
146 -122 183 -120 49 -202 101 -280 179 -73 74 -121 156 -145 251 -9 36 -16
46 -38 51 -119 26 -198 75 -254 155 -94 136 -65 292 67 358 44 22 53 23 104
13 55 -10 60 -9 127 25 101 51 176 108 295 225 125 122 285 233 450 312 135
64 186 82 275 96 101 16 223 -10 308 -66 32 -21 37 -29 37 -64 0 -46 25 -221
41 -295 26 -112 109 -214 204 -251 42 -15 47 -15 63 -1 25 23 93 31 136 17
161 -53 189 -268 53 -408 -57 -59 -110 -89 -197 -110 l-72 -18 -28 -74 c-71
-195 -204 -338 -380 -411 -41 -17 -77 -33 -79 -35 -8 -7 -31 -215 -31 -287 0
-60 5 -87 21 -119 25 -50 111 -141 184 -198 l52 -40 73 15 c172 36 381 99 492
148 65 29 69 36 123 202 l33 100 7 -49 c4 -27 5 -80 2 -117 -3 -38 -3 -69 1
-69 11 0 166 80 190 98 21 17 22 24 26 193 3 194 -2 174 89 335 60 105 97 197
97 236 -1 41 -36 102 -114 192 -175 202 -174 198 -167 576 4 185 -4 237 -51
360 -78 202 -227 339 -419 385 -35 8 -76 15 -90 15 -24 0 -27 5 -37 53 -39
196 -146 306 -350 358 -78 20 -211 24 -287 9z"/>
<path d="M15400 6847 c-237 -81 -347 -250 -318 -487 5 -41 21 -106 35 -145 23
-63 25 -83 24 -200 -2 -134 14 -249 45 -332 16 -41 19 -43 58 -43 22 0 50 -3
62 -6 19 -5 22 1 34 68 23 130 81 271 165 398 72 108 82 117 151 119 32 1 115
13 184 27 264 55 443 16 599 -131 75 -71 168 -122 283 -156 l77 -23 12 -55
c21 -101 67 -174 143 -225 63 -42 92 -51 120 -37 11 6 33 15 47 20 23 8 32 24
58 103 63 189 64 301 4 486 l-27 82 20 21 c12 11 38 26 60 34 54 18 66 41 35
66 -34 28 -87 24 -150 -11 -30 -17 -55 -29 -56 -28 -1 2 -13 23 -27 48 -74
128 -157 196 -295 240 l-95 30 -256 -1 c-292 -1 -313 2 -511 76 -249 92 -354
106 -481 62z"/>
<path d="M4134 6820 c-292 -20 -607 -116 -923 -281 l-134 -70 -46 19 c-156 66
-373 52 -530 -34 -240 -132 -413 -351 -497 -629 -26 -84 -28 -103 -28 -280 -1
-219 4 -246 89 -509 70 -216 89 -309 82 -400 -11 -140 -46 -204 -216 -400
-214 -245 -287 -374 -343 -606 -8 -36 -13 -120 -13 -245 0 -161 4 -206 23
-295 31 -141 79 -235 163 -323 l66 -69 -18 -76 c-33 -139 -70 -372 -60 -372 3
0 44 -4 91 -10 100 -11 399 -39 485 -46 33 -2 107 -9 165 -14 247 -23 575 -32
1175 -33 621 -2 796 4 1005 33 36 5 85 12 109 15 125 15 415 78 433 94 4 4 4
22 -1 41 -5 19 -16 77 -26 127 l-17 93 30 37 c117 150 164 300 165 528 0 172
-20 277 -98 525 -68 215 -126 443 -156 615 -18 105 -23 168 -23 325 -1 241 15
315 105 501 66 136 87 188 118 294 48 170 56 232 55 440 0 183 -3 208 -27 300
-15 55 -49 146 -77 202 -173 350 -597 539 -1126 503z m-694 -619 c105 -15 181
-21 438 -31 318 -13 442 -39 653 -137 l96 -45 41 -86 c194 -417 236 -566 235
-827 -1 -204 -39 -331 -140 -465 -146 -194 -469 -319 -877 -338 l-140 -7 -9
-40 c-12 -56 -1 -164 24 -230 22 -59 99 -147 140 -160 20 -7 21 -11 15 -72 -8
-82 -46 -193 -101 -303 -66 -130 -61 -126 -126 -105 -217 72 -466 225 -668
412 -41 37 -82 74 -92 80 -16 12 -7 24 91 121 142 140 154 166 152 317 -1 61
-10 162 -20 225 l-18 115 -69 8 c-118 12 -208 54 -268 121 -60 69 -93 209 -64
277 26 64 107 109 194 109 90 0 133 -41 188 -176 12 -30 24 -57 27 -59 2 -3
25 2 50 11 l46 15 -39 120 -39 119 53 89 c131 217 183 520 142 826 -19 139
-19 137 3 131 9 -3 46 -10 82 -15z"/>
<path d="M13094 6809 c-66 -8 -104 -21 -252 -86 -284 -123 -417 -144 -755
-119 -295 22 -404 12 -559 -54 -131 -56 -280 -173 -345 -271 l-26 -40 -36 37
c-61 62 -151 91 -202 64 -31 -17 -23 -56 26 -124 25 -35 45 -67 45 -70 0 -4
-20 -35 -44 -69 -81 -115 -115 -209 -123 -344 -10 -161 30 -326 123 -503 44
-83 143 -230 155 -230 4 0 12 13 18 29 7 15 28 43 46 61 40 38 108 50 170 30
60 -20 120 -87 140 -156 9 -33 23 -80 32 -106 19 -61 19 -148 -2 -188 -15 -29
-15 -36 0 -93 8 -34 23 -128 33 -210 l16 -147 51 -19 c84 -31 182 -43 321 -39
128 3 131 4 155 31 36 41 125 67 284 83 361 37 561 110 709 256 38 38 67 71
64 73 -2 2 -26 -2 -53 -11 -76 -22 -112 -8 -130 53 0 1 -25 -5 -55 -13 -30 -8
-73 -14 -95 -14 -34 0 -45 -5 -63 -30 -32 -43 -114 -86 -190 -101 -87 -16
-283 -6 -390 20 -152 38 -269 102 -388 213 -77 73 -127 139 -144 193 -7 22
-18 47 -25 55 -23 28 -47 121 -43 164 3 22 37 109 76 191 100 212 106 239 106
475 0 141 -5 220 -17 284 -9 49 -14 92 -11 95 11 12 373 13 494 2 249 -23 568
-104 751 -190 66 -31 66 -32 107 -119 64 -138 98 -221 126 -307 30 -94 66
-233 66 -257 0 -10 6 -18 13 -18 28 0 158 99 248 189 107 107 163 193 206 316
26 74 28 91 27 235 0 128 -4 170 -22 240 -91 344 -363 574 -638 539z"/>
<path d="M11250 5010 c-21 -21 -35 -61 -28 -82 3 -8 12 0 21 19 21 40 52 51
79 26 11 -10 41 -53 66 -97 49 -83 62 -85 42 -8 -14 57 -53 126 -82 147 -31
21 -74 19 -98 -5z"/>
<path d="M16056 4712 c-10 -13 -34 -30 -52 -38 -37 -16 -154 -18 -224 -4 -25
4 -47 7 -49 5 -6 -7 106 -53 177 -74 277 -82 597 -60 757 50 l30 21 -35 -6
c-19 -4 -87 -9 -150 -12 -128 -6 -173 7 -197 55 -11 24 -15 25 -126 26 -108 1
-114 0 -131 -23z"/>
<path d="M16520 4043 c0 -171 -36 -297 -120 -418 l-31 -46 34 -82 c20 -45 41
-101 48 -125 11 -38 10 -44 -7 -57 -36 -28 -119 -47 -224 -52 -88 -5 -116 -2
-175 16 -77 23 -173 74 -182 96 -9 25 27 162 53 201 l26 37 -25 51 c-44 89
-52 126 -51 236 0 80 6 119 21 165 12 33 20 61 18 63 -8 8 -85 -20 -127 -47
-52 -33 -103 -110 -113 -172 -8 -47 -15 -53 -156 -127 -173 -91 -397 -223
-549 -326 -152 -102 -295 -236 -349 -328 -86 -148 -129 -322 -146 -598 l-7
-106 53 -16 c100 -32 403 -107 531 -132 160 -32 448 -73 593 -85 61 -6 122
-14 135 -19 37 -14 530 -23 640 -12 52 5 174 14 270 20 445 25 767 90 1108
222 l102 40 0 40 c0 76 -31 372 -50 480 -33 186 -62 266 -121 332 -70 80 -283
220 -655 430 -207 117 -301 185 -311 225 -9 41 -43 104 -72 134 -33 36 -65 53
-118 62 l-43 7 0 -109z"/>
<path d="M11230 3820 c-91 -44 -277 -129 -415 -190 -137 -62 -278 -125 -312
-140 -184 -84 -391 -422 -541 -886 -32 -98 -76 -283 -70 -290 16 -15 384 -95
593 -129 187 -29 469 -55 744 -67 474 -20 886 8 1775 122 328 42 606 89 606
104 0 12 -137 406 -175 501 -168 425 -230 486 -785 767 -211 107 -386 185
-394 177 -2 -2 -6 -34 -8 -72 -18 -243 -277 -288 -558 -97 -61 42 -220 199
-252 248 -11 18 -25 32 -31 31 -7 -1 -86 -36 -177 -79z"/>
</g>
</svg>
