<svg width="691" height="318" viewBox="0 0 691 318" fill="none" xmlns="http://www.w3.org/2000/svg">
<mask id="path-1-outside-1_67_235" maskUnits="userSpaceOnUse" x="0.700012" y="0.856506" width="691" height="317" fill="black">
<rect fill="white" x="0.700012" y="0.856506" width="691" height="317"/>
<path d="M391.459 96.2552C391.173 94.7192 390.956 93.0212 390.808 91.1613C390.643 89.2055 390.753 87.3969 391.139 85.7356C391.524 84.0744 392.243 82.5995 393.294 81.3109C394.442 80.0045 396.119 79.1456 398.328 78.7343C398.56 79.9823 398.631 81.1612 398.539 82.2709C398.544 83.3627 398.453 84.4724 398.266 85.6C398.174 86.7097 398.101 87.9154 398.045 89.2172C398.068 90.405 398.213 91.7189 398.482 93.159C399.161 96.8072 400.276 100.126 401.826 103.115C403.377 106.105 405.335 108.62 407.702 110.663C410.148 112.591 412.936 113.959 416.066 114.767C419.293 115.557 422.922 115.576 426.954 114.825C428.682 114.503 430.723 113.725 433.076 112.492C435.429 111.259 437.755 109.882 440.055 108.361C442.354 106.84 444.461 105.355 446.377 103.905C448.292 102.456 449.637 101.411 450.412 100.77C452.309 99.2242 453.694 97.3272 454.567 95.0786C455.421 92.734 455.961 90.299 456.186 87.7737C456.393 85.1524 456.36 82.5758 456.087 80.0439C455.796 77.416 455.463 75.094 455.088 73.0779C454.479 69.8138 453.553 66.7082 452.309 63.7612C451.143 60.7004 449.889 57.7054 448.549 54.7763C447.305 51.8294 446.061 48.8824 444.816 45.9355C443.668 42.9706 442.799 39.9041 442.208 36.736C442.71 33.5631 443.841 30.5709 445.602 27.7595C447.442 24.8341 449.64 22.2392 452.198 19.9745C454.835 17.5961 457.735 15.5658 460.898 13.8838C464.062 12.2018 467.209 10.9697 470.342 10.1875C473.059 10.3767 475.188 10.8741 476.729 11.6798C478.252 12.3894 479.361 13.2756 480.055 14.3382C480.846 15.383 481.196 16.4602 481.104 17.5699C481.013 18.6796 480.712 19.7291 480.201 20.7183C478.716 18.6109 477.037 17.3342 475.166 16.8881C473.391 16.424 471.474 16.5328 469.416 17.2142C467.453 17.8778 465.523 18.9824 463.626 20.5279C461.728 22.0734 459.954 23.745 458.302 25.5428C456.65 27.3405 455.256 29.1896 454.12 31.0899C452.966 32.8943 452.16 34.435 451.703 35.7123C452.24 38.5924 453.055 41.3709 454.15 44.0477C455.323 46.6107 456.504 49.2216 457.695 51.8806C458.964 54.4256 460.146 57.0366 461.24 59.7134C462.413 62.2764 463.268 64.9979 463.804 67.878C465.092 74.7904 465.168 81.3324 464.033 87.504C462.976 93.5617 460.768 99.0392 457.409 103.936C454.128 108.72 449.765 112.761 444.32 116.06C438.971 119.341 432.696 121.652 425.496 122.994C420.984 123.834 416.782 123.673 412.89 122.511C409.094 121.331 405.718 119.476 402.764 116.947C399.888 114.304 397.468 111.179 395.504 107.571C393.541 103.963 392.192 100.191 391.459 96.2552Z"/>
<path d="M482.336 102.571C482.181 96.9377 482.874 91.5934 484.416 86.5381C485.957 81.4827 487.951 76.9889 490.398 73.0564C492.922 69.0101 495.802 65.543 499.039 62.6553C502.276 59.7676 505.569 57.7138 508.918 56.494C512.249 55.1781 515.444 54.7319 518.503 55.1555C521.658 55.5611 524.416 57.0341 526.776 59.5744C527.188 61.7825 527.053 63.993 526.372 66.2058C525.788 68.4008 525.06 70.6225 524.187 72.8711C523.411 75.1018 522.691 77.3716 522.028 79.6804C521.462 81.9714 521.402 84.3169 521.849 86.717C522.314 89.2131 523.218 91.1309 524.56 92.4702C525.98 93.6957 528.083 94.0491 530.867 93.5305C533.171 93.1012 535.316 92.3539 537.303 91.2884C539.386 90.205 541.532 89.4577 543.74 89.0463C544.124 88.9748 544.757 88.9066 545.639 88.8416C546.599 88.6628 547.223 88.5465 547.511 88.4929C546.663 90.3396 545.434 92.0088 543.824 93.5007C542.215 94.9925 540.483 96.3583 538.628 97.5979C536.755 98.7415 534.75 99.711 532.613 100.506C530.573 101.284 528.64 101.842 526.816 102.182C525.088 102.504 523.48 102.406 521.993 101.889C520.506 101.371 519.166 100.578 517.974 99.5083C516.781 98.4391 515.754 97.1901 514.892 95.7613C514.108 94.2186 513.573 92.6793 513.286 91.1432C512.15 93.0436 510.888 95.0667 509.5 97.2127C508.19 99.2448 506.709 101.16 505.057 102.958C503.501 104.737 501.709 106.313 499.679 107.684C497.746 109.038 495.627 109.929 493.323 110.358C490.827 110.823 488.497 110.314 486.333 108.83C484.151 107.249 482.819 105.163 482.336 102.571ZM491.009 96.3362C491.152 97.1042 491.313 97.9682 491.492 98.9283C491.767 99.8704 492.507 100.378 493.713 100.452C496.006 99.4285 498.509 97.6707 501.224 95.1784C503.92 92.59 506.371 89.7493 508.577 86.6564C510.764 83.4676 512.492 80.2151 513.762 76.8992C515.014 73.4872 515.38 70.3892 514.862 67.6051C514.826 67.4131 514.724 67.134 514.557 66.7678C514.467 66.2878 514.405 65.9518 514.369 65.7598C511.105 66.3679 507.918 67.6569 504.808 69.6269C501.698 71.5969 499.023 74.0324 496.782 76.9332C494.523 79.7381 492.816 82.8376 491.66 86.2316C490.6 89.6078 490.383 92.976 491.009 96.3362Z"/>
<path d="M544.024 145.764C546.166 140.2 548.887 135.074 552.186 130.386C555.503 125.795 558.951 121.378 562.531 117.135C566.208 112.874 569.854 108.718 573.47 104.667C577.086 100.616 580.322 96.3871 583.177 91.9812C586.127 87.5574 588.478 82.848 590.23 77.8529C591.964 72.7618 592.747 67.1026 592.581 60.8755C592.545 60.6835 592.443 60.4044 592.276 60.0383C592.186 59.5583 592.124 59.2223 592.088 59.0302C590.363 62.0337 588.22 65.4626 585.66 69.3169C583.196 73.1534 580.408 76.8515 577.296 80.4112C574.28 83.9531 570.983 87.0507 567.405 89.704C563.826 92.3574 560.165 94.0328 556.421 94.7303C555.461 94.9091 554.204 95.0936 552.65 95.2838C551.174 95.36 549.671 95.2923 548.142 95.0805C546.612 94.8687 545.239 94.4292 544.022 93.7619C542.805 93.0946 542.063 92.0409 541.794 90.6008C541.562 89.3527 541.54 87.37 541.729 84.6527C541.918 81.9354 542.294 78.8854 542.856 75.5026C543.418 72.1198 544.115 68.6622 544.947 65.1298C545.779 61.5974 546.76 58.3351 547.892 55.343C549.023 52.3508 550.196 49.8476 551.41 47.8334C552.72 45.8012 554.047 44.66 555.391 44.4096C556.735 44.1592 557.941 44.2326 559.008 44.6298C560.076 45.027 560.735 45.8976 560.985 47.2417C561.432 49.6418 561.015 52.2029 559.734 54.9249C558.453 57.647 557.064 60.5878 555.566 63.7475C554.051 66.8112 552.724 70.0881 551.587 73.5782C550.449 77.0683 550.255 80.8294 551.006 84.8616C557.343 83.6812 562.814 81.3211 567.419 77.7811C572.006 74.1451 575.998 69.9745 579.393 65.2693C582.788 60.5641 585.64 55.6123 587.95 50.4138C590.259 45.2154 592.248 40.4246 593.914 36.0413C595.677 31.6401 597.181 27.9825 598.427 25.0685C599.75 22.0405 601.036 20.4103 602.284 20.1778C604.108 19.838 605.271 20.2173 605.774 21.3157C606.354 22.3002 606.797 23.6085 607.101 25.2406C606.791 28.3777 606.244 32.1055 605.459 36.4238C604.656 40.6461 603.85 45.1174 603.041 49.8377C602.309 54.444 601.674 59.0325 601.135 63.6031C600.692 68.1558 600.609 72.244 600.886 75.8677C600.904 75.9637 600.931 76.1077 600.967 76.2997C601.099 76.4739 601.174 76.6089 601.191 76.7049C602.812 75.807 604.257 74.4949 605.524 72.7687C606.792 71.0425 608.012 69.3252 609.184 67.6169C610.434 65.7946 611.719 64.1644 613.041 62.7262C614.344 61.192 615.812 60.2729 617.444 59.9689C617.54 59.951 618.002 60.5604 618.828 61.7972C619.75 63.0161 620.054 64.6481 619.74 66.6934C619.001 67.5264 617.632 68.9736 615.632 71.0349C613.728 73.0783 611.697 75.2445 609.541 77.5336C607.367 79.7267 605.337 81.8929 603.45 84.0323C601.546 86.0758 600.243 87.61 599.54 88.635C598.446 90.2294 597.412 92.4088 596.437 95.1732C595.462 97.9376 594.54 100.99 593.672 104.33C592.822 107.767 591.999 111.347 591.203 115.072C590.503 118.778 589.785 122.389 589.049 125.903C588.331 129.514 587.559 132.836 586.733 135.871C586.022 138.984 585.308 141.55 584.592 143.571C584.255 144.429 583.524 146.104 582.399 148.599C581.388 151.171 580.212 153.923 578.871 156.855C577.626 159.769 576.354 162.539 575.055 165.165C573.87 167.869 572.935 169.782 572.25 170.903C571.955 171.454 571.105 172.755 569.699 174.805C568.31 176.951 566.709 179.286 564.894 181.809C563.193 184.411 561.484 186.965 559.765 189.47C557.95 191.994 556.565 193.891 555.61 195.161C554.583 196.048 553.199 197.15 551.458 198.468C549.735 199.882 547.927 201.112 546.036 202.16C544.05 203.225 542.114 204.033 540.23 204.583C538.249 205.15 536.537 205.022 535.092 204.199C533.665 203.471 532.632 201.925 531.993 199.561C531.276 197.31 531.187 193.9 531.726 189.329C532.187 184.872 533.394 179.085 535.346 171.966C537.298 164.848 540.191 156.114 544.024 145.764ZM583.475 106.379C583.283 106.415 582.955 106.525 582.493 106.711C582.145 106.974 581.884 107.172 581.71 107.304C581.554 107.532 581.184 107.948 580.602 108.553C580.019 109.159 579.349 109.83 578.593 110.567C577.932 111.286 577.271 112.005 576.61 112.724C576.046 113.425 575.646 113.947 575.412 114.288C573.081 116.709 570.51 119.97 567.698 124.07C564.903 128.266 562.027 132.824 559.07 137.746C556.226 142.746 553.467 147.929 550.791 153.295C548.133 158.757 545.814 163.907 543.835 168.746C541.778 173.699 540.225 178.16 539.176 182.13C538.128 186.1 537.761 189.198 538.076 191.424C538.392 193.65 539.545 194.776 541.537 194.803C543.528 194.829 546.623 193.309 550.82 190.242C551.619 189.2 552.769 187.644 554.272 185.576C555.696 183.622 557.102 181.572 558.49 179.426C559.992 177.358 561.32 175.422 562.474 173.618C563.646 171.91 564.34 170.837 564.557 170.399C564.911 169.638 565.483 168.438 566.271 166.802C567.058 165.165 567.906 163.318 568.815 161.262C569.723 159.205 570.661 157.043 571.63 154.777C572.598 152.51 573.48 150.31 574.274 148.175C575.182 146.119 575.934 144.29 576.53 142.689C577.222 141.07 577.688 139.841 577.929 139.001C578.507 137.304 579.152 134.899 579.863 131.787C580.689 128.752 581.391 125.591 581.971 122.305C582.569 119.114 583.04 116.046 583.386 113.101C583.731 110.156 583.761 107.915 583.475 106.379Z"/>
<path d="M622.992 79.3491C622.956 79.1571 622.92 78.9651 622.884 78.7731C622.849 78.5811 622.87 78.4281 622.948 78.3142C625.16 74.7234 627.542 71.2498 630.096 67.8934C632.728 64.4231 635.539 61.1179 638.53 57.978L663.264 14.7784L661.248 15.154C659.231 15.5295 657.308 16.1362 655.477 16.9739C653.629 17.7156 651.789 18.5053 649.959 19.343C648.128 20.1807 646.297 21.0184 644.466 21.8561C642.618 22.5978 640.686 23.1564 638.67 23.532C635.814 23.6666 633.834 23.4393 632.731 22.8501C631.724 22.2431 631.332 21.4717 631.555 20.5362C631.76 19.5046 632.446 18.3836 633.611 17.1731C634.776 15.9627 636.208 14.8516 637.907 13.8398C639.588 12.7319 641.41 11.8462 643.372 11.1826C645.317 10.423 647.123 9.98724 648.791 9.87522C652.356 8.21769 655.465 7.04254 658.117 6.34977C660.848 5.54312 663.941 4.81787 667.397 4.17404C670.182 3.6554 672.488 3.77209 674.317 4.52411C676.128 5.18013 677.328 7.09221 677.918 10.2604C678.044 10.9324 677.448 12.5334 676.131 15.0635C674.892 17.4796 673.263 20.4652 671.243 24.0202C669.206 27.4792 666.925 31.2319 664.4 35.2782C661.972 39.3067 659.574 43.2302 657.206 47.0488C654.934 50.8495 652.896 54.3085 651.093 57.4258C649.271 60.4472 647.997 62.6713 647.269 64.0982C647.401 64.2723 647.752 64.5547 648.321 64.9453C648.891 65.3359 649.289 65.6093 649.517 65.7656C652.27 66.1467 655.267 66.2342 658.506 66.0281C661.824 65.708 665.124 65.292 668.406 64.7799C671.67 64.1719 674.781 63.5426 677.74 62.8922C680.68 62.1458 683.188 61.4798 685.265 60.8944C686.104 61.1353 686.713 61.469 687.09 61.8954C687.45 62.2257 687.683 62.6789 687.791 63.255C688.166 65.2711 687.531 66.929 685.886 68.2289C684.241 69.5287 682.302 70.5853 680.069 71.3985C677.819 72.1157 675.59 72.68 673.381 73.0914C671.155 73.4067 669.658 73.6359 668.89 73.779C666.586 74.2082 664.342 74.4275 662.159 74.4369C659.975 74.4464 657.783 74.4078 655.581 74.3212C653.362 74.1387 651.16 74.0521 648.976 74.0615C646.889 74.0531 644.741 74.2545 642.533 74.6658C640.997 74.952 639.733 75.6344 638.742 76.713C637.829 77.6778 636.934 78.7386 636.057 79.8953C635.258 80.9382 634.459 81.9811 633.659 83.024C632.939 83.953 632.002 84.5248 630.85 84.7394C629.218 85.0434 627.548 84.6096 625.839 83.4377C624.227 82.2481 623.278 80.8852 622.992 79.3491Z"/>
<path d="M3.70001 284C3.70001 278.2 5.40001 271.5 8.80001 263.9C12.2 256.1 15.9 250.8 19.9 248C27.5 253.6 35.2 256.4 43 256.4L52.3 254.9C63.1 251.7 68.7 243.1 69.1 229.1V152.6H45.1C41.7 152.6 39.3 148.3 37.9 139.7C37.3 135.5 37 131.2 37 126.8C37 122.4 37.3 118.1 37.9 113.9C39.3 105.3 41.7 101 45.1 101H116.5C120.5 101 123.5 102.2 125.5 104.6C127.5 106.8 128.5 109.5 128.5 112.7V254.3C128.5 273.9 121.9 288.8 108.7 299C95.7 309.2 80 314.3 61.6 314.3C43.4 314.3 29.2 311.6 19 306.2C8.80001 300.8 3.70001 293.4 3.70001 284Z"/>
<path d="M318.974 304.4C318.974 308.6 309.574 310.7 290.774 310.7C271.974 310.7 261.774 309.2 260.174 306.2L210.074 212.6V305.9C210.074 309.5 200.774 311.3 182.174 311.3C163.774 311.3 154.574 309.5 154.574 305.9V105.2C154.574 102.2 162.474 100.7 178.274 100.7C184.474 100.7 191.674 101.3 199.874 102.5C208.274 103.5 213.374 105.5 215.174 108.5L263.174 200.9V106.7C263.174 102.9 272.474 101 291.074 101C309.674 101 318.974 102.9 318.974 106.7V304.4Z"/>
<path d="M447.205 107C447.205 103 458.005 101 479.605 101C501.406 101 512.305 103 512.305 107V244.7C512.305 265.1 505.005 281.8 490.405 294.8C475.805 307.6 455.605 314 429.805 314C404.205 314 383.305 307.4 367.105 294.2C351.105 280.8 343.105 262.8 343.105 240.2V107.3C343.105 103.3 353.905 101.3 375.505 101.3C397.305 101.3 408.205 103.3 408.205 107.3V242.6C408.205 246.6 410.305 249.8 414.505 252.2C418.905 254.6 423.505 255.8 428.305 255.8C433.105 255.8 437.405 254.7 441.205 252.5C445.205 250.3 447.205 247 447.205 242.6V107Z"/>
</mask>
<path d="M391.459 96.2552C391.173 94.7192 390.956 93.0212 390.808 91.1613C390.643 89.2055 390.753 87.3969 391.139 85.7356C391.524 84.0744 392.243 82.5995 393.294 81.3109C394.442 80.0045 396.119 79.1456 398.328 78.7343C398.56 79.9823 398.631 81.1612 398.539 82.2709C398.544 83.3627 398.453 84.4724 398.266 85.6C398.174 86.7097 398.101 87.9154 398.045 89.2172C398.068 90.405 398.213 91.7189 398.482 93.159C399.161 96.8072 400.276 100.126 401.826 103.115C403.377 106.105 405.335 108.62 407.702 110.663C410.148 112.591 412.936 113.959 416.066 114.767C419.293 115.557 422.922 115.576 426.954 114.825C428.682 114.503 430.723 113.725 433.076 112.492C435.429 111.259 437.755 109.882 440.055 108.361C442.354 106.84 444.461 105.355 446.377 103.905C448.292 102.456 449.637 101.411 450.412 100.77C452.309 99.2242 453.694 97.3272 454.567 95.0786C455.421 92.734 455.961 90.299 456.186 87.7737C456.393 85.1524 456.36 82.5758 456.087 80.0439C455.796 77.416 455.463 75.094 455.088 73.0779C454.479 69.8138 453.553 66.7082 452.309 63.7612C451.143 60.7004 449.889 57.7054 448.549 54.7763C447.305 51.8294 446.061 48.8824 444.816 45.9355C443.668 42.9706 442.799 39.9041 442.208 36.736C442.71 33.5631 443.841 30.5709 445.602 27.7595C447.442 24.8341 449.64 22.2392 452.198 19.9745C454.835 17.5961 457.735 15.5658 460.898 13.8838C464.062 12.2018 467.209 10.9697 470.342 10.1875C473.059 10.3767 475.188 10.8741 476.729 11.6798C478.252 12.3894 479.361 13.2756 480.055 14.3382C480.846 15.383 481.196 16.4602 481.104 17.5699C481.013 18.6796 480.712 19.7291 480.201 20.7183C478.716 18.6109 477.037 17.3342 475.166 16.8881C473.391 16.424 471.474 16.5328 469.416 17.2142C467.453 17.8778 465.523 18.9824 463.626 20.5279C461.728 22.0734 459.954 23.745 458.302 25.5428C456.65 27.3405 455.256 29.1896 454.12 31.0899C452.966 32.8943 452.16 34.435 451.703 35.7123C452.24 38.5924 453.055 41.3709 454.15 44.0477C455.323 46.6107 456.504 49.2216 457.695 51.8806C458.964 54.4256 460.146 57.0366 461.24 59.7134C462.413 62.2764 463.268 64.9979 463.804 67.878C465.092 74.7904 465.168 81.3324 464.033 87.504C462.976 93.5617 460.768 99.0392 457.409 103.936C454.128 108.72 449.765 112.761 444.32 116.06C438.971 119.341 432.696 121.652 425.496 122.994C420.984 123.834 416.782 123.673 412.89 122.511C409.094 121.331 405.718 119.476 402.764 116.947C399.888 114.304 397.468 111.179 395.504 107.571C393.541 103.963 392.192 100.191 391.459 96.2552Z" fill="black"/>
<path d="M482.336 102.571C482.181 96.9377 482.874 91.5934 484.416 86.5381C485.957 81.4827 487.951 76.9889 490.398 73.0564C492.922 69.0101 495.802 65.543 499.039 62.6553C502.276 59.7676 505.569 57.7138 508.918 56.494C512.249 55.1781 515.444 54.7319 518.503 55.1555C521.658 55.5611 524.416 57.0341 526.776 59.5744C527.188 61.7825 527.053 63.993 526.372 66.2058C525.788 68.4008 525.06 70.6225 524.187 72.8711C523.411 75.1018 522.691 77.3716 522.028 79.6804C521.462 81.9714 521.402 84.3169 521.849 86.717C522.314 89.2131 523.218 91.1309 524.56 92.4702C525.98 93.6957 528.083 94.0491 530.867 93.5305C533.171 93.1012 535.316 92.3539 537.303 91.2884C539.386 90.205 541.532 89.4577 543.74 89.0463C544.124 88.9748 544.757 88.9066 545.639 88.8416C546.599 88.6628 547.223 88.5465 547.511 88.4929C546.663 90.3396 545.434 92.0088 543.824 93.5007C542.215 94.9925 540.483 96.3583 538.628 97.5979C536.755 98.7415 534.75 99.711 532.613 100.506C530.573 101.284 528.64 101.842 526.816 102.182C525.088 102.504 523.48 102.406 521.993 101.889C520.506 101.371 519.166 100.578 517.974 99.5083C516.781 98.4391 515.754 97.1901 514.892 95.7613C514.108 94.2186 513.573 92.6793 513.286 91.1432C512.15 93.0436 510.888 95.0667 509.5 97.2127C508.19 99.2448 506.709 101.16 505.057 102.958C503.501 104.737 501.709 106.313 499.679 107.684C497.746 109.038 495.627 109.929 493.323 110.358C490.827 110.823 488.497 110.314 486.333 108.83C484.151 107.249 482.819 105.163 482.336 102.571ZM491.009 96.3362C491.152 97.1042 491.313 97.9682 491.492 98.9283C491.767 99.8704 492.507 100.378 493.713 100.452C496.006 99.4285 498.509 97.6707 501.224 95.1784C503.92 92.59 506.371 89.7493 508.577 86.6564C510.764 83.4676 512.492 80.2151 513.762 76.8992C515.014 73.4872 515.38 70.3892 514.862 67.6051C514.826 67.4131 514.724 67.134 514.557 66.7678C514.467 66.2878 514.405 65.9518 514.369 65.7598C511.105 66.3679 507.918 67.6569 504.808 69.6269C501.698 71.5969 499.023 74.0324 496.782 76.9332C494.523 79.7381 492.816 82.8376 491.66 86.2316C490.6 89.6078 490.383 92.976 491.009 96.3362Z" fill="black"/>
<path d="M544.024 145.764C546.166 140.2 548.887 135.074 552.186 130.386C555.503 125.795 558.951 121.378 562.531 117.135C566.208 112.874 569.854 108.718 573.47 104.667C577.086 100.616 580.322 96.3871 583.177 91.9812C586.127 87.5574 588.478 82.848 590.23 77.8529C591.964 72.7618 592.747 67.1026 592.581 60.8755C592.545 60.6835 592.443 60.4044 592.276 60.0383C592.186 59.5583 592.124 59.2223 592.088 59.0302C590.363 62.0337 588.22 65.4626 585.66 69.3169C583.196 73.1534 580.408 76.8515 577.296 80.4112C574.28 83.9531 570.983 87.0507 567.405 89.704C563.826 92.3574 560.165 94.0328 556.421 94.7303C555.461 94.9091 554.204 95.0936 552.65 95.2838C551.174 95.36 549.671 95.2923 548.142 95.0805C546.612 94.8687 545.239 94.4292 544.022 93.7619C542.805 93.0946 542.063 92.0409 541.794 90.6008C541.562 89.3527 541.54 87.37 541.729 84.6527C541.918 81.9354 542.294 78.8854 542.856 75.5026C543.418 72.1198 544.115 68.6622 544.947 65.1298C545.779 61.5974 546.76 58.3351 547.892 55.343C549.023 52.3508 550.196 49.8476 551.41 47.8334C552.72 45.8012 554.047 44.66 555.391 44.4096C556.735 44.1592 557.941 44.2326 559.008 44.6298C560.076 45.027 560.735 45.8976 560.985 47.2417C561.432 49.6418 561.015 52.2029 559.734 54.9249C558.453 57.647 557.064 60.5878 555.566 63.7475C554.051 66.8112 552.724 70.0881 551.587 73.5782C550.449 77.0683 550.255 80.8294 551.006 84.8616C557.343 83.6812 562.814 81.3211 567.419 77.7811C572.006 74.1451 575.998 69.9745 579.393 65.2693C582.788 60.5641 585.64 55.6123 587.95 50.4138C590.259 45.2154 592.248 40.4246 593.914 36.0413C595.677 31.6401 597.181 27.9825 598.427 25.0685C599.75 22.0405 601.036 20.4103 602.284 20.1778C604.108 19.838 605.271 20.2173 605.774 21.3157C606.354 22.3002 606.797 23.6085 607.101 25.2406C606.791 28.3777 606.244 32.1055 605.459 36.4238C604.656 40.6461 603.85 45.1174 603.041 49.8377C602.309 54.444 601.674 59.0325 601.135 63.6031C600.692 68.1558 600.609 72.244 600.886 75.8677C600.904 75.9637 600.931 76.1077 600.967 76.2997C601.099 76.4739 601.174 76.6089 601.191 76.7049C602.812 75.807 604.257 74.4949 605.524 72.7687C606.792 71.0425 608.012 69.3252 609.184 67.6169C610.434 65.7946 611.719 64.1644 613.041 62.7262C614.344 61.192 615.812 60.2729 617.444 59.9689C617.54 59.951 618.002 60.5604 618.828 61.7972C619.75 63.0161 620.054 64.6481 619.74 66.6934C619.001 67.5264 617.632 68.9736 615.632 71.0349C613.728 73.0783 611.697 75.2445 609.541 77.5336C607.367 79.7267 605.337 81.8929 603.45 84.0323C601.546 86.0758 600.243 87.61 599.54 88.635C598.446 90.2294 597.412 92.4088 596.437 95.1732C595.462 97.9376 594.54 100.99 593.672 104.33C592.822 107.767 591.999 111.347 591.203 115.072C590.503 118.778 589.785 122.389 589.049 125.903C588.331 129.514 587.559 132.836 586.733 135.871C586.022 138.984 585.308 141.55 584.592 143.571C584.255 144.429 583.524 146.104 582.399 148.599C581.388 151.171 580.212 153.923 578.871 156.855C577.626 159.769 576.354 162.539 575.055 165.165C573.87 167.869 572.935 169.782 572.25 170.903C571.955 171.454 571.105 172.755 569.699 174.805C568.31 176.951 566.709 179.286 564.894 181.809C563.193 184.411 561.484 186.965 559.765 189.47C557.95 191.994 556.565 193.891 555.61 195.161C554.583 196.048 553.199 197.15 551.458 198.468C549.735 199.882 547.927 201.112 546.036 202.16C544.05 203.225 542.114 204.033 540.23 204.583C538.249 205.15 536.537 205.022 535.092 204.199C533.665 203.471 532.632 201.925 531.993 199.561C531.276 197.31 531.187 193.9 531.726 189.329C532.187 184.872 533.394 179.085 535.346 171.966C537.298 164.848 540.191 156.114 544.024 145.764ZM583.475 106.379C583.283 106.415 582.955 106.525 582.493 106.711C582.145 106.974 581.884 107.172 581.71 107.304C581.554 107.532 581.184 107.948 580.602 108.553C580.019 109.159 579.349 109.83 578.593 110.567C577.932 111.286 577.271 112.005 576.61 112.724C576.046 113.425 575.646 113.947 575.412 114.288C573.081 116.709 570.51 119.97 567.698 124.07C564.903 128.266 562.027 132.824 559.07 137.746C556.226 142.746 553.467 147.929 550.791 153.295C548.133 158.757 545.814 163.907 543.835 168.746C541.778 173.699 540.225 178.16 539.176 182.13C538.128 186.1 537.761 189.198 538.076 191.424C538.392 193.65 539.545 194.776 541.537 194.803C543.528 194.829 546.623 193.309 550.82 190.242C551.619 189.2 552.769 187.644 554.272 185.576C555.696 183.622 557.102 181.572 558.49 179.426C559.992 177.358 561.32 175.422 562.474 173.618C563.646 171.91 564.34 170.837 564.557 170.399C564.911 169.638 565.483 168.438 566.271 166.802C567.058 165.165 567.906 163.318 568.815 161.262C569.723 159.205 570.661 157.043 571.63 154.777C572.598 152.51 573.48 150.31 574.274 148.175C575.182 146.119 575.934 144.29 576.53 142.689C577.222 141.07 577.688 139.841 577.929 139.001C578.507 137.304 579.152 134.899 579.863 131.787C580.689 128.752 581.391 125.591 581.971 122.305C582.569 119.114 583.04 116.046 583.386 113.101C583.731 110.156 583.761 107.915 583.475 106.379Z" fill="black"/>
<path d="M622.992 79.3491C622.956 79.1571 622.92 78.9651 622.884 78.7731C622.849 78.5811 622.87 78.4281 622.948 78.3142C625.16 74.7234 627.542 71.2498 630.096 67.8934C632.728 64.4231 635.539 61.1179 638.53 57.978L663.264 14.7784L661.248 15.154C659.231 15.5295 657.308 16.1362 655.477 16.9739C653.629 17.7156 651.789 18.5053 649.959 19.343C648.128 20.1807 646.297 21.0184 644.466 21.8561C642.618 22.5978 640.686 23.1564 638.67 23.532C635.814 23.6666 633.834 23.4393 632.731 22.8501C631.724 22.2431 631.332 21.4717 631.555 20.5362C631.76 19.5046 632.446 18.3836 633.611 17.1731C634.776 15.9627 636.208 14.8516 637.907 13.8398C639.588 12.7319 641.41 11.8462 643.372 11.1826C645.317 10.423 647.123 9.98724 648.791 9.87522C652.356 8.21769 655.465 7.04254 658.117 6.34977C660.848 5.54312 663.941 4.81787 667.397 4.17404C670.182 3.6554 672.488 3.77209 674.317 4.52411C676.128 5.18013 677.328 7.09221 677.918 10.2604C678.044 10.9324 677.448 12.5334 676.131 15.0635C674.892 17.4796 673.263 20.4652 671.243 24.0202C669.206 27.4792 666.925 31.2319 664.4 35.2782C661.972 39.3067 659.574 43.2302 657.206 47.0488C654.934 50.8495 652.896 54.3085 651.093 57.4258C649.271 60.4472 647.997 62.6713 647.269 64.0982C647.401 64.2723 647.752 64.5547 648.321 64.9453C648.891 65.3359 649.289 65.6093 649.517 65.7656C652.27 66.1467 655.267 66.2342 658.506 66.0281C661.824 65.708 665.124 65.292 668.406 64.7799C671.67 64.1719 674.781 63.5426 677.74 62.8922C680.68 62.1458 683.188 61.4798 685.265 60.8944C686.104 61.1353 686.713 61.469 687.09 61.8954C687.45 62.2257 687.683 62.6789 687.791 63.255C688.166 65.2711 687.531 66.929 685.886 68.2289C684.241 69.5287 682.302 70.5853 680.069 71.3985C677.819 72.1157 675.59 72.68 673.381 73.0914C671.155 73.4067 669.658 73.6359 668.89 73.779C666.586 74.2082 664.342 74.4275 662.159 74.4369C659.975 74.4464 657.783 74.4078 655.581 74.3212C653.362 74.1387 651.16 74.0521 648.976 74.0615C646.889 74.0531 644.741 74.2545 642.533 74.6658C640.997 74.952 639.733 75.6344 638.742 76.713C637.829 77.6778 636.934 78.7386 636.057 79.8953C635.258 80.9382 634.459 81.9811 633.659 83.024C632.939 83.953 632.002 84.5248 630.85 84.7394C629.218 85.0434 627.548 84.6096 625.839 83.4377C624.227 82.2481 623.278 80.8852 622.992 79.3491Z" fill="black"/>
<path d="M3.70001 284C3.70001 278.2 5.40001 271.5 8.80001 263.9C12.2 256.1 15.9 250.8 19.9 248C27.5 253.6 35.2 256.4 43 256.4L52.3 254.9C63.1 251.7 68.7 243.1 69.1 229.1V152.6H45.1C41.7 152.6 39.3 148.3 37.9 139.7C37.3 135.5 37 131.2 37 126.8C37 122.4 37.3 118.1 37.9 113.9C39.3 105.3 41.7 101 45.1 101H116.5C120.5 101 123.5 102.2 125.5 104.6C127.5 106.8 128.5 109.5 128.5 112.7V254.3C128.5 273.9 121.9 288.8 108.7 299C95.7 309.2 80 314.3 61.6 314.3C43.4 314.3 29.2 311.6 19 306.2C8.80001 300.8 3.70001 293.4 3.70001 284Z" fill="#FFF9F9"/>
<path d="M318.974 304.4C318.974 308.6 309.574 310.7 290.774 310.7C271.974 310.7 261.774 309.2 260.174 306.2L210.074 212.6V305.9C210.074 309.5 200.774 311.3 182.174 311.3C163.774 311.3 154.574 309.5 154.574 305.9V105.2C154.574 102.2 162.474 100.7 178.274 100.7C184.474 100.7 191.674 101.3 199.874 102.5C208.274 103.5 213.374 105.5 215.174 108.5L263.174 200.9V106.7C263.174 102.9 272.474 101 291.074 101C309.674 101 318.974 102.9 318.974 106.7V304.4Z" fill="#FFF9F9"/>
<path d="M447.205 107C447.205 103 458.005 101 479.605 101C501.406 101 512.305 103 512.305 107V244.7C512.305 265.1 505.005 281.8 490.405 294.8C475.805 307.6 455.605 314 429.805 314C404.205 314 383.305 307.4 367.105 294.2C351.105 280.8 343.105 262.8 343.105 240.2V107.3C343.105 103.3 353.905 101.3 375.505 101.3C397.305 101.3 408.205 103.3 408.205 107.3V242.6C408.205 246.6 410.305 249.8 414.505 252.2C418.905 254.6 423.505 255.8 428.305 255.8C433.105 255.8 437.405 254.7 441.205 252.5C445.205 250.3 447.205 247 447.205 242.6V107Z" fill="#FFF9F9"/>
<path d="M391.459 96.2552C391.173 94.7192 390.956 93.0212 390.808 91.1613C390.643 89.2055 390.753 87.3969 391.139 85.7356C391.524 84.0744 392.243 82.5995 393.294 81.3109C394.442 80.0045 396.119 79.1456 398.328 78.7343C398.56 79.9823 398.631 81.1612 398.539 82.2709C398.544 83.3627 398.453 84.4724 398.266 85.6C398.174 86.7097 398.101 87.9154 398.045 89.2172C398.068 90.405 398.213 91.7189 398.482 93.159C399.161 96.8072 400.276 100.126 401.826 103.115C403.377 106.105 405.335 108.62 407.702 110.663C410.148 112.591 412.936 113.959 416.066 114.767C419.293 115.557 422.922 115.576 426.954 114.825C428.682 114.503 430.723 113.725 433.076 112.492C435.429 111.259 437.755 109.882 440.055 108.361C442.354 106.84 444.461 105.355 446.377 103.905C448.292 102.456 449.637 101.411 450.412 100.77C452.309 99.2242 453.694 97.3272 454.567 95.0786C455.421 92.734 455.961 90.299 456.186 87.7737C456.393 85.1524 456.36 82.5758 456.087 80.0439C455.796 77.416 455.463 75.094 455.088 73.0779C454.479 69.8138 453.553 66.7082 452.309 63.7612C451.143 60.7004 449.889 57.7054 448.549 54.7763C447.305 51.8294 446.061 48.8824 444.816 45.9355C443.668 42.9706 442.799 39.9041 442.208 36.736C442.71 33.5631 443.841 30.5709 445.602 27.7595C447.442 24.8341 449.64 22.2392 452.198 19.9745C454.835 17.5961 457.735 15.5658 460.898 13.8838C464.062 12.2018 467.209 10.9697 470.342 10.1875C473.059 10.3767 475.188 10.8741 476.729 11.6798C478.252 12.3894 479.361 13.2756 480.055 14.3382C480.846 15.383 481.196 16.4602 481.104 17.5699C481.013 18.6796 480.712 19.7291 480.201 20.7183C478.716 18.6109 477.037 17.3342 475.166 16.8881C473.391 16.424 471.474 16.5328 469.416 17.2142C467.453 17.8778 465.523 18.9824 463.626 20.5279C461.728 22.0734 459.954 23.745 458.302 25.5428C456.65 27.3405 455.256 29.1896 454.12 31.0899C452.966 32.8943 452.16 34.435 451.703 35.7123C452.24 38.5924 453.055 41.3709 454.15 44.0477C455.323 46.6107 456.504 49.2216 457.695 51.8806C458.964 54.4256 460.146 57.0366 461.24 59.7134C462.413 62.2764 463.268 64.9979 463.804 67.878C465.092 74.7904 465.168 81.3324 464.033 87.504C462.976 93.5617 460.768 99.0392 457.409 103.936C454.128 108.72 449.765 112.761 444.32 116.06C438.971 119.341 432.696 121.652 425.496 122.994C420.984 123.834 416.782 123.673 412.89 122.511C409.094 121.331 405.718 119.476 402.764 116.947C399.888 114.304 397.468 111.179 395.504 107.571C393.541 103.963 392.192 100.191 391.459 96.2552Z" stroke="black" stroke-width="6" mask="url(#path-1-outside-1_67_235)"/>
<path d="M482.336 102.571C482.181 96.9377 482.874 91.5934 484.416 86.5381C485.957 81.4827 487.951 76.9889 490.398 73.0564C492.922 69.0101 495.802 65.543 499.039 62.6553C502.276 59.7676 505.569 57.7138 508.918 56.494C512.249 55.1781 515.444 54.7319 518.503 55.1555C521.658 55.5611 524.416 57.0341 526.776 59.5744C527.188 61.7825 527.053 63.993 526.372 66.2058C525.788 68.4008 525.06 70.6225 524.187 72.8711C523.411 75.1018 522.691 77.3716 522.028 79.6804C521.462 81.9714 521.402 84.3169 521.849 86.717C522.314 89.2131 523.218 91.1309 524.56 92.4702C525.98 93.6957 528.083 94.0491 530.867 93.5305C533.171 93.1012 535.316 92.3539 537.303 91.2884C539.386 90.205 541.532 89.4577 543.74 89.0463C544.124 88.9748 544.757 88.9066 545.639 88.8416C546.599 88.6628 547.223 88.5465 547.511 88.4929C546.663 90.3396 545.434 92.0088 543.824 93.5007C542.215 94.9925 540.483 96.3583 538.628 97.5979C536.755 98.7415 534.75 99.711 532.613 100.506C530.573 101.284 528.64 101.842 526.816 102.182C525.088 102.504 523.48 102.406 521.993 101.889C520.506 101.371 519.166 100.578 517.974 99.5083C516.781 98.4391 515.754 97.1901 514.892 95.7613C514.108 94.2186 513.573 92.6793 513.286 91.1432C512.15 93.0436 510.888 95.0667 509.5 97.2127C508.19 99.2448 506.709 101.16 505.057 102.958C503.501 104.737 501.709 106.313 499.679 107.684C497.746 109.038 495.627 109.929 493.323 110.358C490.827 110.823 488.497 110.314 486.333 108.83C484.151 107.249 482.819 105.163 482.336 102.571ZM491.009 96.3362C491.152 97.1042 491.313 97.9682 491.492 98.9283C491.767 99.8704 492.507 100.378 493.713 100.452C496.006 99.4285 498.509 97.6707 501.224 95.1784C503.92 92.59 506.371 89.7493 508.577 86.6564C510.764 83.4676 512.492 80.2151 513.762 76.8992C515.014 73.4872 515.38 70.3892 514.862 67.6051C514.826 67.4131 514.724 67.134 514.557 66.7678C514.467 66.2878 514.405 65.9518 514.369 65.7598C511.105 66.3679 507.918 67.6569 504.808 69.6269C501.698 71.5969 499.023 74.0324 496.782 76.9332C494.523 79.7381 492.816 82.8376 491.66 86.2316C490.6 89.6078 490.383 92.976 491.009 96.3362Z" stroke="black" stroke-width="6" mask="url(#path-1-outside-1_67_235)"/>
<path d="M544.024 145.764C546.166 140.2 548.887 135.074 552.186 130.386C555.503 125.795 558.951 121.378 562.531 117.135C566.208 112.874 569.854 108.718 573.47 104.667C577.086 100.616 580.322 96.3871 583.177 91.9812C586.127 87.5574 588.478 82.848 590.23 77.8529C591.964 72.7618 592.747 67.1026 592.581 60.8755C592.545 60.6835 592.443 60.4044 592.276 60.0383C592.186 59.5583 592.124 59.2223 592.088 59.0302C590.363 62.0337 588.22 65.4626 585.66 69.3169C583.196 73.1534 580.408 76.8515 577.296 80.4112C574.28 83.9531 570.983 87.0507 567.405 89.704C563.826 92.3574 560.165 94.0328 556.421 94.7303C555.461 94.9091 554.204 95.0936 552.65 95.2838C551.174 95.36 549.671 95.2923 548.142 95.0805C546.612 94.8687 545.239 94.4292 544.022 93.7619C542.805 93.0946 542.063 92.0409 541.794 90.6008C541.562 89.3527 541.54 87.37 541.729 84.6527C541.918 81.9354 542.294 78.8854 542.856 75.5026C543.418 72.1198 544.115 68.6622 544.947 65.1298C545.779 61.5974 546.76 58.3351 547.892 55.343C549.023 52.3508 550.196 49.8476 551.41 47.8334C552.72 45.8012 554.047 44.66 555.391 44.4096C556.735 44.1592 557.941 44.2326 559.008 44.6298C560.076 45.027 560.735 45.8976 560.985 47.2417C561.432 49.6418 561.015 52.2029 559.734 54.9249C558.453 57.647 557.064 60.5878 555.566 63.7475C554.051 66.8112 552.724 70.0881 551.587 73.5782C550.449 77.0683 550.255 80.8294 551.006 84.8616C557.343 83.6812 562.814 81.3211 567.419 77.7811C572.006 74.1451 575.998 69.9745 579.393 65.2693C582.788 60.5641 585.64 55.6123 587.95 50.4138C590.259 45.2154 592.248 40.4246 593.914 36.0413C595.677 31.6401 597.181 27.9825 598.427 25.0685C599.75 22.0405 601.036 20.4103 602.284 20.1778C604.108 19.838 605.271 20.2173 605.774 21.3157C606.354 22.3002 606.797 23.6085 607.101 25.2406C606.791 28.3777 606.244 32.1055 605.459 36.4238C604.656 40.6461 603.85 45.1174 603.041 49.8377C602.309 54.444 601.674 59.0325 601.135 63.6031C600.692 68.1558 600.609 72.244 600.886 75.8677C600.904 75.9637 600.931 76.1077 600.967 76.2997C601.099 76.4739 601.174 76.6089 601.191 76.7049C602.812 75.807 604.257 74.4949 605.524 72.7687C606.792 71.0425 608.012 69.3252 609.184 67.6169C610.434 65.7946 611.719 64.1644 613.041 62.7262C614.344 61.192 615.812 60.2729 617.444 59.9689C617.54 59.951 618.002 60.5604 618.828 61.7972C619.75 63.0161 620.054 64.6481 619.74 66.6934C619.001 67.5264 617.632 68.9736 615.632 71.0349C613.728 73.0783 611.697 75.2445 609.541 77.5336C607.367 79.7267 605.337 81.8929 603.45 84.0323C601.546 86.0758 600.243 87.61 599.54 88.635C598.446 90.2294 597.412 92.4088 596.437 95.1732C595.462 97.9376 594.54 100.99 593.672 104.33C592.822 107.767 591.999 111.347 591.203 115.072C590.503 118.778 589.785 122.389 589.049 125.903C588.331 129.514 587.559 132.836 586.733 135.871C586.022 138.984 585.308 141.55 584.592 143.571C584.255 144.429 583.524 146.104 582.399 148.599C581.388 151.171 580.212 153.923 578.871 156.855C577.626 159.769 576.354 162.539 575.055 165.165C573.87 167.869 572.935 169.782 572.25 170.903C571.955 171.454 571.105 172.755 569.699 174.805C568.31 176.951 566.709 179.286 564.894 181.809C563.193 184.411 561.484 186.965 559.765 189.47C557.95 191.994 556.565 193.891 555.61 195.161C554.583 196.048 553.199 197.15 551.458 198.468C549.735 199.882 547.927 201.112 546.036 202.16C544.05 203.225 542.114 204.033 540.23 204.583C538.249 205.15 536.537 205.022 535.092 204.199C533.665 203.471 532.632 201.925 531.993 199.561C531.276 197.31 531.187 193.9 531.726 189.329C532.187 184.872 533.394 179.085 535.346 171.966C537.298 164.848 540.191 156.114 544.024 145.764ZM583.475 106.379C583.283 106.415 582.955 106.525 582.493 106.711C582.145 106.974 581.884 107.172 581.71 107.304C581.554 107.532 581.184 107.948 580.602 108.553C580.019 109.159 579.349 109.83 578.593 110.567C577.932 111.286 577.271 112.005 576.61 112.724C576.046 113.425 575.646 113.947 575.412 114.288C573.081 116.709 570.51 119.97 567.698 124.07C564.903 128.266 562.027 132.824 559.07 137.746C556.226 142.746 553.467 147.929 550.791 153.295C548.133 158.757 545.814 163.907 543.835 168.746C541.778 173.699 540.225 178.16 539.176 182.13C538.128 186.1 537.761 189.198 538.076 191.424C538.392 193.65 539.545 194.776 541.537 194.803C543.528 194.829 546.623 193.309 550.82 190.242C551.619 189.2 552.769 187.644 554.272 185.576C555.696 183.622 557.102 181.572 558.49 179.426C559.992 177.358 561.32 175.422 562.474 173.618C563.646 171.91 564.34 170.837 564.557 170.399C564.911 169.638 565.483 168.438 566.271 166.802C567.058 165.165 567.906 163.318 568.815 161.262C569.723 159.205 570.661 157.043 571.63 154.777C572.598 152.51 573.48 150.31 574.274 148.175C575.182 146.119 575.934 144.29 576.53 142.689C577.222 141.07 577.688 139.841 577.929 139.001C578.507 137.304 579.152 134.899 579.863 131.787C580.689 128.752 581.391 125.591 581.971 122.305C582.569 119.114 583.04 116.046 583.386 113.101C583.731 110.156 583.761 107.915 583.475 106.379Z" stroke="black" stroke-width="6" mask="url(#path-1-outside-1_67_235)"/>
<path d="M622.992 79.3491C622.956 79.1571 622.92 78.9651 622.884 78.7731C622.849 78.5811 622.87 78.4281 622.948 78.3142C625.16 74.7234 627.542 71.2498 630.096 67.8934C632.728 64.4231 635.539 61.1179 638.53 57.978L663.264 14.7784L661.248 15.154C659.231 15.5295 657.308 16.1362 655.477 16.9739C653.629 17.7156 651.789 18.5053 649.959 19.343C648.128 20.1807 646.297 21.0184 644.466 21.8561C642.618 22.5978 640.686 23.1564 638.67 23.532C635.814 23.6666 633.834 23.4393 632.731 22.8501C631.724 22.2431 631.332 21.4717 631.555 20.5362C631.76 19.5046 632.446 18.3836 633.611 17.1731C634.776 15.9627 636.208 14.8516 637.907 13.8398C639.588 12.7319 641.41 11.8462 643.372 11.1826C645.317 10.423 647.123 9.98724 648.791 9.87522C652.356 8.21769 655.465 7.04254 658.117 6.34977C660.848 5.54312 663.941 4.81787 667.397 4.17404C670.182 3.6554 672.488 3.77209 674.317 4.52411C676.128 5.18013 677.328 7.09221 677.918 10.2604C678.044 10.9324 677.448 12.5334 676.131 15.0635C674.892 17.4796 673.263 20.4652 671.243 24.0202C669.206 27.4792 666.925 31.2319 664.4 35.2782C661.972 39.3067 659.574 43.2302 657.206 47.0488C654.934 50.8495 652.896 54.3085 651.093 57.4258C649.271 60.4472 647.997 62.6713 647.269 64.0982C647.401 64.2723 647.752 64.5547 648.321 64.9453C648.891 65.3359 649.289 65.6093 649.517 65.7656C652.27 66.1467 655.267 66.2342 658.506 66.0281C661.824 65.708 665.124 65.292 668.406 64.7799C671.67 64.1719 674.781 63.5426 677.74 62.8922C680.68 62.1458 683.188 61.4798 685.265 60.8944C686.104 61.1353 686.713 61.469 687.09 61.8954C687.45 62.2257 687.683 62.6789 687.791 63.255C688.166 65.2711 687.531 66.929 685.886 68.2289C684.241 69.5287 682.302 70.5853 680.069 71.3985C677.819 72.1157 675.59 72.68 673.381 73.0914C671.155 73.4067 669.658 73.6359 668.89 73.779C666.586 74.2082 664.342 74.4275 662.159 74.4369C659.975 74.4464 657.783 74.4078 655.581 74.3212C653.362 74.1387 651.16 74.0521 648.976 74.0615C646.889 74.0531 644.741 74.2545 642.533 74.6658C640.997 74.952 639.733 75.6344 638.742 76.713C637.829 77.6778 636.934 78.7386 636.057 79.8953C635.258 80.9382 634.459 81.9811 633.659 83.024C632.939 83.953 632.002 84.5248 630.85 84.7394C629.218 85.0434 627.548 84.6096 625.839 83.4377C624.227 82.2481 623.278 80.8852 622.992 79.3491Z" stroke="black" stroke-width="6" mask="url(#path-1-outside-1_67_235)"/>
<path d="M3.70001 284C3.70001 278.2 5.40001 271.5 8.80001 263.9C12.2 256.1 15.9 250.8 19.9 248C27.5 253.6 35.2 256.4 43 256.4L52.3 254.9C63.1 251.7 68.7 243.1 69.1 229.1V152.6H45.1C41.7 152.6 39.3 148.3 37.9 139.7C37.3 135.5 37 131.2 37 126.8C37 122.4 37.3 118.1 37.9 113.9C39.3 105.3 41.7 101 45.1 101H116.5C120.5 101 123.5 102.2 125.5 104.6C127.5 106.8 128.5 109.5 128.5 112.7V254.3C128.5 273.9 121.9 288.8 108.7 299C95.7 309.2 80 314.3 61.6 314.3C43.4 314.3 29.2 311.6 19 306.2C8.80001 300.8 3.70001 293.4 3.70001 284Z" stroke="black" stroke-width="6" mask="url(#path-1-outside-1_67_235)"/>
<path d="M318.974 304.4C318.974 308.6 309.574 310.7 290.774 310.7C271.974 310.7 261.774 309.2 260.174 306.2L210.074 212.6V305.9C210.074 309.5 200.774 311.3 182.174 311.3C163.774 311.3 154.574 309.5 154.574 305.9V105.2C154.574 102.2 162.474 100.7 178.274 100.7C184.474 100.7 191.674 101.3 199.874 102.5C208.274 103.5 213.374 105.5 215.174 108.5L263.174 200.9V106.7C263.174 102.9 272.474 101 291.074 101C309.674 101 318.974 102.9 318.974 106.7V304.4Z" stroke="black" stroke-width="6" mask="url(#path-1-outside-1_67_235)"/>
<path d="M447.205 107C447.205 103 458.005 101 479.605 101C501.406 101 512.305 103 512.305 107V244.7C512.305 265.1 505.005 281.8 490.405 294.8C475.805 307.6 455.605 314 429.805 314C404.205 314 383.305 307.4 367.105 294.2C351.105 280.8 343.105 262.8 343.105 240.2V107.3C343.105 103.3 353.905 101.3 375.505 101.3C397.305 101.3 408.205 103.3 408.205 107.3V242.6C408.205 246.6 410.305 249.8 414.505 252.2C418.905 254.6 423.505 255.8 428.305 255.8C433.105 255.8 437.405 254.7 441.205 252.5C445.205 250.3 447.205 247 447.205 242.6V107Z" stroke="black" stroke-width="6" mask="url(#path-1-outside-1_67_235)"/>
</svg>
