<svg width="590" height="352" viewBox="0 0 590 352" fill="none" xmlns="http://www.w3.org/2000/svg">
<path d="M0 183.3C0 177.5 1.7 170.8 5.1 163.2C8.5 155.4 12.2 150.1 16.2 147.3C23.8 152.9 31.5 155.7 39.3 155.7L48.6 154.2C59.4 151 65 142.4 65.4 128.4V51.9H41.4C38 51.9 35.6 47.6 34.2 39C33.6 34.8 33.3 30.5 33.3 26.1C33.3 21.7 33.6 17.4 34.2 13.2C35.6 4.6 38 0.299996 41.4 0.299996H112.8C116.8 0.299996 119.8 1.5 121.8 3.9C123.8 6.1 124.8 8.8 124.8 12V153.6C124.8 173.2 118.2 188.1 105 198.3C92 208.5 76.3 213.6 57.9 213.6C39.7 213.6 25.5 210.9 15.3 205.5C5.1 200.1 0 192.7 0 183.3Z" fill="white"/>
<path d="M315.274 203.7C315.274 207.9 305.874 210 287.074 210C268.274 210 258.074 208.5 256.474 205.5L206.374 111.9V205.2C206.374 208.8 197.074 210.6 178.474 210.6C160.074 210.6 150.874 208.8 150.874 205.2V4.5C150.874 1.5 158.774 0 174.574 0C180.774 0 187.974 0.599998 196.174 1.79999C204.574 2.79999 209.674 4.8 211.474 7.80001L259.474 100.2V5.99999C259.474 2.2 268.774 0.299996 287.374 0.299996C305.974 0.299996 315.274 2.2 315.274 5.99999V203.7Z" fill="white"/>
<path d="M443.505 6.30001C443.505 2.3 454.305 0.299996 475.905 0.299996C497.706 0.299996 508.605 2.3 508.605 6.30001V144C508.605 164.4 501.305 181.1 486.705 194.1C472.105 206.9 451.905 213.3 426.105 213.3C400.505 213.3 379.605 206.7 363.405 193.5C347.405 180.1 339.405 162.1 339.405 139.5V6.6C339.405 2.6 350.205 0.599992 371.805 0.599992C393.605 0.599992 404.505 2.6 404.505 6.6V141.9C404.505 145.9 406.605 149.1 410.805 151.5C415.205 153.9 419.805 155.1 424.605 155.1C429.405 155.1 433.705 154 437.505 151.8C441.505 149.6 443.505 146.3 443.505 141.9V6.30001Z" fill="white"/>
<path d="M300.282 264.001C299.785 262.52 299.333 260.869 298.927 259.047C298.49 257.134 298.347 255.328 298.497 253.629C298.647 251.93 299.153 250.369 300.015 248.947C300.968 247.493 302.51 246.408 304.639 245.693C305.043 246.896 305.278 248.054 305.342 249.165C305.499 250.246 305.564 251.357 305.535 252.5C305.6 253.612 305.695 254.816 305.822 256.113C306.01 257.286 306.338 258.566 306.804 259.955C307.986 263.473 309.553 266.603 311.505 269.347C313.458 272.091 315.748 274.309 318.377 276.001C321.068 277.569 324.019 278.535 327.232 278.898C330.537 279.23 334.134 278.742 338.021 277.436C339.688 276.876 341.6 275.821 343.758 274.272C345.916 272.723 348.027 271.035 350.092 269.208C352.156 267.381 354.036 265.616 355.73 263.913C357.425 262.211 358.611 260.988 359.288 260.245C360.952 258.45 362.058 256.378 362.609 254.03C363.128 251.589 363.322 249.103 363.193 246.571C363.032 243.946 362.64 241.399 362.016 238.93C361.362 236.369 360.708 234.116 360.054 232.172C358.997 229.025 357.646 226.079 356.003 223.334C354.421 220.466 352.762 217.675 351.026 214.962C349.383 212.217 347.74 209.473 346.096 206.728C344.546 203.953 343.257 201.037 342.23 197.983C342.284 194.771 342.987 191.65 344.339 188.62C345.752 185.467 347.567 182.591 349.784 179.991C352.063 177.268 354.651 174.853 357.549 172.746C360.446 170.639 363.392 168.98 366.384 167.768C369.101 167.576 371.279 167.772 372.917 168.355C374.524 168.845 375.746 169.568 376.582 170.523C377.51 171.447 378.007 172.465 378.072 173.577C378.136 174.688 377.984 175.77 377.616 176.82C375.851 174.941 374.011 173.911 372.096 173.73C370.274 173.518 368.391 173.893 366.448 174.855C364.597 175.786 362.84 177.149 361.177 178.945C359.513 180.74 357.989 182.643 356.605 184.653C355.22 186.664 354.097 188.689 353.238 190.73C352.347 192.677 351.764 194.315 351.489 195.644C352.422 198.421 353.618 201.059 355.075 203.557C356.594 205.931 358.129 208.351 359.679 210.818C361.29 213.161 362.825 215.582 364.282 218.08C365.801 220.454 367.027 223.03 367.96 225.807C370.2 232.472 371.188 238.939 370.925 245.209C370.724 251.355 369.302 257.087 366.659 262.405C364.077 267.599 360.321 272.209 355.39 276.236C350.551 280.231 344.66 283.395 337.717 285.728C333.366 287.19 329.183 287.617 325.167 287.009C321.243 286.37 317.642 285.005 314.364 282.913C311.147 280.697 308.314 277.94 305.867 274.641C303.419 271.343 301.558 267.796 300.282 264.001Z" fill="black"/>
<path d="M391.152 257.574C390.212 252.018 390.153 246.629 390.974 241.408C391.795 236.187 393.142 231.459 395.016 227.224C396.951 222.865 399.32 219.03 402.122 215.719C404.924 212.407 407.898 209.914 411.044 208.239C414.159 206.471 417.26 205.584 420.349 205.576C423.529 205.538 426.466 206.611 429.158 208.798C429.873 210.927 430.048 213.134 429.683 215.42C429.411 217.675 428.999 219.977 428.449 222.325C427.991 224.643 427.596 226.991 427.262 229.369C427.02 231.717 427.288 234.048 428.066 236.362C428.875 238.769 430.037 240.542 431.553 241.681C433.131 242.696 435.261 242.753 437.946 241.851C440.168 241.104 442.188 240.065 444.007 238.732C445.918 237.369 447.938 236.33 450.067 235.614C450.438 235.49 451.055 235.334 451.919 235.147C452.845 234.835 453.447 234.633 453.724 234.54C453.142 236.487 452.158 238.311 450.773 240.013C449.387 241.715 447.863 243.309 446.199 244.795C444.503 246.189 442.654 247.429 440.649 248.515C438.737 249.569 436.901 250.392 435.142 250.983C433.476 251.543 431.871 251.67 430.326 251.365C428.781 251.06 427.343 250.461 426.013 249.569C424.683 248.677 423.492 247.583 422.439 246.289C421.447 244.871 420.702 243.421 420.205 241.94C419.345 243.98 418.377 246.16 417.302 248.478C416.288 250.673 415.089 252.776 413.704 254.787C412.412 256.766 410.857 258.577 409.039 260.218C407.313 261.828 405.34 263.006 403.118 263.753C400.711 264.561 398.333 264.382 395.983 263.214C393.602 261.954 391.992 260.074 391.152 257.574ZM398.87 250.19C399.119 250.931 399.399 251.764 399.71 252.69C400.113 253.584 400.917 253.984 402.121 253.888C404.249 252.555 406.483 250.465 408.823 247.619C411.132 244.679 413.163 241.524 414.915 238.154C416.636 234.691 417.894 231.229 418.688 227.769C419.452 224.216 419.382 221.097 418.48 218.412C418.418 218.227 418.279 217.965 418.062 217.626C417.906 217.163 417.797 216.839 417.735 216.654C414.588 217.711 411.612 219.432 408.807 221.817C406.003 224.202 403.693 226.987 401.879 230.172C400.033 233.264 398.775 236.572 398.104 240.094C397.526 243.585 397.781 246.95 398.87 250.19Z" fill="black"/>
<path d="M458.263 291.737C459.608 285.928 461.586 280.473 464.199 275.371C466.843 270.362 469.641 265.507 472.595 260.806C475.641 256.073 478.671 251.449 481.687 246.933C484.702 242.417 487.316 237.779 489.528 233.018C491.833 228.225 493.504 223.234 494.541 218.043C495.547 212.76 495.534 207.047 494.5 200.904C494.438 200.719 494.298 200.457 494.081 200.118C493.925 199.655 493.817 199.331 493.754 199.146C492.465 202.36 490.822 206.055 488.825 210.229C486.92 214.371 484.675 218.422 482.091 222.381C479.599 226.309 476.766 229.837 473.593 232.963C470.42 236.09 467.028 238.26 463.418 239.473C462.492 239.784 461.273 240.142 459.761 240.547C458.31 240.829 456.813 240.971 455.269 240.975C453.724 240.979 452.303 240.735 451.005 240.244C449.707 239.753 448.824 238.813 448.358 237.425C447.954 236.221 447.655 234.261 447.464 231.544C447.272 228.827 447.218 225.754 447.302 222.326C447.387 218.898 447.594 215.377 447.925 211.763C448.256 208.149 448.773 204.782 449.476 201.661C450.179 198.54 450.991 195.898 451.912 193.734C452.926 191.539 454.081 190.224 455.377 189.788C456.673 189.353 457.877 189.257 458.989 189.502C460.101 189.746 460.875 190.516 461.311 191.812C462.088 194.127 462.033 196.721 461.144 199.595C460.256 202.469 459.29 205.575 458.248 208.913C457.175 212.158 456.319 215.588 455.679 219.202C455.039 222.817 455.373 226.569 456.679 230.456C462.789 228.404 467.877 225.303 471.943 221.155C475.978 216.915 479.349 212.228 482.054 207.095C484.759 201.962 486.893 196.661 488.454 191.191C490.016 185.721 491.316 180.7 492.355 176.127C493.487 171.523 494.466 167.691 495.292 164.632C496.18 161.449 497.226 159.655 498.429 159.251C500.188 158.66 501.393 158.873 502.044 159.89C502.756 160.784 503.377 162.018 503.906 163.592C504.037 166.741 504.015 170.509 503.84 174.895C503.635 179.188 503.46 183.728 503.317 188.515C503.236 193.178 503.247 197.81 503.351 202.411C503.547 206.981 504.036 211.041 504.816 214.591C504.847 214.683 504.894 214.822 504.956 215.007C505.111 215.161 505.204 215.285 505.235 215.377C506.715 214.262 507.962 212.761 508.976 210.875C509.991 208.989 510.959 207.118 511.881 205.263C512.865 203.284 513.91 201.49 515.018 199.882C516.095 198.181 517.42 197.066 518.994 196.537C519.086 196.506 519.628 197.045 520.619 198.154C521.702 199.233 522.231 200.806 522.205 202.875C521.59 203.803 520.436 205.427 518.743 207.748C517.143 210.037 515.435 212.465 513.619 215.033C511.772 217.508 510.064 219.936 508.494 222.318C506.894 224.607 505.817 226.308 505.264 227.421C504.404 229.152 503.684 231.455 503.104 234.328C502.524 237.202 502.037 240.353 501.644 243.782C501.282 247.303 500.967 250.963 500.698 254.762C500.522 258.53 500.314 262.206 500.076 265.789C499.869 269.464 499.568 272.862 499.174 275.982C498.904 279.163 498.555 281.804 498.128 283.905C497.914 284.801 497.424 286.563 496.658 289.19C496.016 291.878 495.236 294.767 494.317 297.858C493.49 300.917 492.617 303.837 491.697 306.619C490.901 309.462 490.242 311.486 489.72 312.692C489.505 313.279 488.845 314.686 487.739 316.912C486.663 319.231 485.403 321.766 483.958 324.518C482.637 327.332 481.301 330.099 479.948 332.819C478.504 335.571 477.397 337.643 476.628 339.035C475.735 340.056 474.518 341.341 472.978 342.888C471.469 344.529 469.851 345.999 468.125 347.301C466.306 348.633 464.502 349.703 462.713 350.51C460.831 351.348 459.117 351.461 457.572 350.847C456.057 350.325 454.819 348.939 453.856 346.687C452.832 344.558 452.268 341.193 452.164 336.592C451.999 332.115 452.386 326.216 453.326 318.894C454.265 311.573 455.911 302.521 458.263 291.737ZM491.832 247.233C491.647 247.295 491.339 247.45 490.907 247.699C490.599 248.008 490.368 248.24 490.214 248.395C490.091 248.642 489.783 249.106 489.291 249.787C488.798 250.468 488.229 251.225 487.582 252.061C487.028 252.865 486.474 253.669 485.92 254.474C485.459 255.247 485.136 255.819 484.952 256.19C482.982 258.912 480.891 262.5 478.678 266.952C476.496 271.497 474.285 276.412 472.043 281.698C469.925 287.046 467.916 292.563 466.015 298.25C464.145 304.03 462.567 309.453 461.283 314.521C459.936 319.712 459.021 324.347 458.537 328.424C458.053 332.502 458.122 335.621 458.745 337.781C459.367 339.941 460.667 340.895 462.643 340.643C464.618 340.392 467.47 338.455 471.198 334.832C471.844 333.688 472.766 331.988 473.965 329.73C475.103 327.597 476.209 325.371 477.284 323.052C478.483 320.795 479.528 318.692 480.419 316.744C481.341 314.889 481.879 313.73 482.032 313.266C482.277 312.463 482.676 311.196 483.227 309.465C483.779 307.734 484.361 305.787 484.973 303.624C485.586 301.461 486.214 299.19 486.856 296.81C487.499 294.431 488.065 292.129 488.554 289.904C489.166 287.741 489.655 285.825 490.022 284.157C490.481 282.457 490.771 281.175 490.893 280.31C491.228 278.549 491.531 276.077 491.801 272.896C492.195 269.776 492.45 266.548 492.566 263.213C492.712 259.97 492.751 256.866 492.682 253.901C492.613 250.937 492.33 248.714 491.832 247.233Z" fill="black"/>
<path d="M527.191 214.954C527.129 214.768 527.067 214.583 527.004 214.398C526.942 214.213 526.942 214.059 527.003 213.935C528.692 210.071 530.567 206.299 532.627 202.619C534.749 198.815 537.072 195.15 539.596 191.623L558.059 145.395L556.115 146.048C554.171 146.702 552.351 147.571 550.656 148.656C548.929 149.648 547.217 150.687 545.521 151.772C543.825 152.857 542.13 153.942 540.434 155.027C538.707 156.019 536.871 156.842 534.927 157.495C532.118 158.027 530.127 158.078 528.952 157.648C527.87 157.188 527.374 156.479 527.465 155.521C527.524 154.471 528.046 153.265 529.031 151.904C530.016 150.543 531.279 149.243 532.82 148.004C534.33 146.672 536.01 145.541 537.861 144.61C539.68 143.587 541.408 142.903 543.044 142.559C546.343 140.421 549.258 138.823 551.787 137.767C554.379 136.587 557.34 135.438 560.673 134.318C563.357 133.416 565.658 133.21 567.574 133.699C569.458 134.096 570.914 135.822 571.94 138.877C572.158 139.525 571.792 141.193 570.841 143.882C569.951 146.447 568.755 149.631 567.251 153.433C565.715 157.143 563.98 161.177 562.045 165.536C560.203 169.864 558.376 174.084 556.563 178.195C554.844 182.276 553.309 185.985 551.958 189.324C550.576 192.57 549.625 194.95 549.103 196.464C549.258 196.618 549.645 196.849 550.263 197.156C550.881 197.464 551.314 197.679 551.562 197.802C554.341 197.795 557.32 197.464 560.5 196.807C563.74 196.028 566.95 195.155 570.128 194.19C573.276 193.133 576.269 192.075 579.107 191.019C581.915 189.869 584.306 188.86 586.28 187.99C587.145 188.112 587.794 188.357 588.227 188.727C588.629 189.004 588.924 189.42 589.11 189.975C589.764 191.919 589.366 193.65 587.918 195.166C586.471 196.683 584.698 198 582.601 199.117C580.473 200.141 578.344 201.011 576.215 201.726C574.055 202.349 572.604 202.785 571.864 203.034C569.642 203.78 567.451 204.31 565.29 204.624C563.129 204.938 560.952 205.206 558.76 205.428C556.537 205.557 554.345 205.778 552.184 206.092C550.115 206.375 548.017 206.874 545.888 207.59C544.406 208.087 543.25 208.939 542.42 210.146C541.65 211.228 540.912 212.404 540.205 213.671C539.559 214.816 538.913 215.96 538.267 217.104C537.683 218.125 536.835 218.821 535.725 219.195C534.151 219.723 532.436 219.527 530.581 218.605C528.819 217.652 527.689 216.435 527.191 214.954Z" fill="black"/>
</svg>
