<svg width="539" height="88" viewBox="0 0 539 88" fill="none" xmlns="http://www.w3.org/2000/svg">
<path d="M0.520012 3.19992C0.280012 2.31992 4.32001 1.87992 12.64 1.87992C21.84 1.87992 26.56 2.63992 26.8 4.15992L32.68 54.6799L45.4 3.55992C45.8 2.35992 48.92 1.75993 54.76 1.75993C60.6 1.75993 63.72 2.31993 64.12 3.43993L76.6 54.9199L83.56 3.91993C83.72 3.03992 85.56 2.43992 89.08 2.11992C92.6 1.79992 95.44 1.63993 97.6 1.63993C106 1.63993 110.08 2.19993 109.84 3.31993L95.32 82.8799C95 84.0799 92.72 84.9599 88.48 85.5199C84.24 86.0799 80.8 86.3599 78.16 86.3599C68.24 86.3599 63.04 85.2399 62.56 82.9999L54.4 49.9999L45.52 82.8799C45.2 84.3199 42.4 85.3599 37.12 85.9999C34.4 86.2399 31.68 86.3599 28.96 86.3599L21.28 85.9999C16 85.4399 13.2 84.4399 12.88 82.9999L0.520012 3.19992Z" fill="black"/>
<path d="M157.375 35.3599C158.895 35.3599 159.655 38.1599 159.655 43.7599C159.655 45.4399 159.455 47.4399 159.055 49.7599C158.735 51.9999 158.095 53.1199 157.135 53.1199H141.895V65.1199H163.975C165.335 65.1199 166.255 66.8799 166.735 70.3999C166.975 71.9199 167.095 73.5599 167.095 75.3199C167.095 76.9999 166.855 79.1999 166.375 81.9199C165.895 84.6399 165.095 85.9999 163.975 85.9999H122.935C119.895 85.9999 118.375 84.7599 118.375 82.2799V5.11993C118.375 3.03992 119.295 1.99992 121.135 1.99992H164.095C165.775 1.99992 166.615 5.55992 166.615 12.6799C166.615 19.7199 165.775 23.2399 164.095 23.2399H141.895V35.3599H157.375Z" fill="black"/>
<path d="M176.355 78.9199V4.27992C176.355 2.59992 180.395 1.75993 188.475 1.75993C196.635 1.75993 200.715 2.59992 200.715 4.27992V63.0799H219.195C220.635 63.0799 221.635 64.9599 222.195 68.7199C222.435 70.5599 222.555 72.4399 222.555 74.3599C222.555 76.2799 222.435 78.2399 222.195 80.2399C221.555 84.0799 220.515 85.9999 219.075 85.9999H182.115C180.355 85.9999 178.955 85.2799 177.915 83.8399C176.875 82.3999 176.355 80.7599 176.355 78.9199Z" fill="black"/>
<path d="M264.023 0.919922C269.863 0.919922 274.983 1.75992 279.383 3.43993C283.863 5.03992 286.103 7.23992 286.103 10.0399C286.103 12.8399 285.023 16.3199 282.863 20.4799C280.783 24.5599 279.023 26.5999 277.583 26.5999C277.183 26.5999 276.703 26.3999 276.143 25.9999C275.663 25.5199 274.463 25.0399 272.543 24.5599C270.703 23.9999 269.103 23.7199 267.743 23.7199C263.103 23.7199 259.343 25.3599 256.463 28.6399C253.663 31.9199 252.263 36.9599 252.263 43.7599C252.263 50.4799 253.703 55.4799 256.583 58.7599C259.543 62.0399 263.263 63.6799 267.743 63.6799C269.583 63.6799 271.623 63.4399 273.863 62.9599C276.183 62.3999 277.823 61.6399 278.783 60.6799C278.943 60.5199 279.263 60.4399 279.743 60.4399C280.223 60.4399 281.103 61.3599 282.383 63.1999C283.743 64.9599 284.983 67.3199 286.103 70.2799C287.223 73.1599 287.783 75.3999 287.783 76.9999C287.783 80.1199 285.383 82.5999 280.583 84.4399C275.783 86.2799 270.103 87.1999 263.543 87.1999C252.983 87.1999 244.303 83.4799 237.503 76.0399C230.703 68.5999 227.303 58.1199 227.303 44.5999C227.303 30.9999 230.783 20.3199 237.743 12.5599C244.783 4.79992 253.543 0.919922 264.023 0.919922Z" fill="black"/>
<path d="M332.609 87.1999C321.409 87.1999 312.249 83.5199 305.129 76.1599C298.089 68.7999 294.569 58.0799 294.569 43.9999C294.569 29.8399 298.129 19.1199 305.249 11.8399C312.449 4.55992 321.689 0.919922 332.969 0.919922C344.329 0.919922 353.489 4.51992 360.449 11.7199C367.409 18.8399 370.889 29.6799 370.889 44.2399C370.889 58.7199 367.329 69.5199 360.209 76.6399C353.089 83.6799 343.889 87.1999 332.609 87.1999ZM332.729 23.9599C328.889 23.9599 325.649 25.7199 323.009 29.2399C320.449 32.7599 319.169 37.7199 319.169 44.1199C319.169 50.4399 320.409 55.3199 322.889 58.7599C325.369 62.1199 328.609 63.7999 332.609 63.7999C336.689 63.7999 339.969 62.0799 342.449 58.6399C345.009 55.1999 346.289 50.2799 346.289 43.8799C346.289 37.4799 344.969 32.5599 342.329 29.1199C339.769 25.6799 336.569 23.9599 332.729 23.9599Z" fill="black"/>
<path d="M464.523 86.1199C457.403 86.1199 453.843 85.3199 453.843 83.7199L451.323 35.5999L436.683 84.3199C436.363 85.2799 433.643 85.7599 428.523 85.7599C423.403 85.7599 420.763 85.3199 420.603 84.4399L405.483 35.1199L403.803 82.9999C403.723 84.1999 402.203 85.0399 399.243 85.5199C396.283 85.9199 393.803 86.1199 391.803 86.1199C389.883 86.1199 388.003 85.9999 386.163 85.7599C382.323 85.1999 380.443 84.1999 380.523 82.7599L383.283 4.75992C383.283 2.83992 388.163 1.87992 397.923 1.87992C400.803 1.87992 404.323 2.11992 408.483 2.59992C412.643 2.99992 414.963 3.83992 415.443 5.11993L428.883 42.9199L440.643 4.99993C441.363 2.91992 446.883 1.87992 457.203 1.87992C460.163 1.87992 463.683 2.11992 467.763 2.59992C471.923 2.99992 474.003 3.75992 474.003 4.87992L477.483 83.5999C477.483 84.4799 475.923 85.1199 472.803 85.5199C469.683 85.9199 466.923 86.1199 464.523 86.1199Z" fill="black"/>
<path d="M528.391 35.3599C529.911 35.3599 530.671 38.1599 530.671 43.7599C530.671 45.4399 530.471 47.4399 530.071 49.7599C529.751 51.9999 529.111 53.1199 528.151 53.1199H512.911V65.1199H534.991C536.351 65.1199 537.271 66.8799 537.751 70.3999C537.991 71.9199 538.111 73.5599 538.111 75.3199C538.111 76.9999 537.871 79.1999 537.391 81.9199C536.911 84.6399 536.111 85.9999 534.991 85.9999H493.951C490.911 85.9999 489.391 84.7599 489.391 82.2799V5.11993C489.391 3.03992 490.311 1.99992 492.151 1.99992H535.111C536.791 1.99992 537.631 5.55992 537.631 12.6799C537.631 19.7199 536.791 23.2399 535.111 23.2399H512.911V35.3599H528.391Z" fill="black"/>
</svg>
